<svg width="275" height="231" viewBox="0 0 275 231" fill="none" xmlns="http://www.w3.org/2000/svg">
<path d="M138.042 3.53052L51.7388 53.3228C51.7388 53.3228 51.7388 156.019 138.042 212.036C224.345 156.019 224.345 53.3228 224.345 53.3228L138.042 3.53052Z" fill="#3F3D56"/>
<path opacity="0.04" d="M138.557 3.53052L137.082 4.38167V211.065C137.572 211.389 138.062 211.714 138.557 212.036C224.86 156.019 224.86 53.3228 224.86 53.3228L138.557 3.53052Z" fill="#6C63FF"/>
<g opacity="0.7">
<path opacity="0.7" d="M117.149 104.429L133.418 118.412L153.587 91.1338L161.722 97.4894L133.418 131.123L110.37 106.972L117.149 104.429Z" fill="url(#paint0_linear)"/>
</g>
<path d="M120.989 105.27L134.187 116.612L152.883 90.834L159.482 95.9896L134.187 126.923L115.49 107.332L120.989 105.27Z" fill="#3AD29F"/>
<path opacity="0.5" d="M52.8887 14.6938C52.6241 14.5858 52.4111 14.3903 52.2903 14.1447C52.1695 13.899 52.1493 13.6202 52.2335 13.3615C52.2471 13.3218 52.2557 13.2808 52.259 13.2392C52.2667 13.1207 52.2335 13.0029 52.1643 12.9035C52.095 12.804 51.9934 12.7281 51.8746 12.687C51.7557 12.6459 51.6259 12.6418 51.5044 12.6752C51.3828 12.7087 51.276 12.778 51.1997 12.8728C51.1735 12.9065 51.1516 12.9429 51.1345 12.9814C51.0192 13.2294 50.8108 13.4291 50.5487 13.5423C50.2867 13.6556 49.9894 13.6746 49.7134 13.5956C49.6711 13.5829 49.6273 13.5748 49.583 13.5717C49.4565 13.5645 49.3309 13.5956 49.2249 13.6605C49.1188 13.7255 49.0378 13.8207 48.994 13.9321C48.9501 14.0436 48.9457 14.1653 48.9814 14.2792C49.0171 14.3932 49.091 14.4933 49.1922 14.5648C49.2281 14.5894 49.2669 14.61 49.308 14.626C49.5725 14.734 49.7855 14.9295 49.9063 15.1751C50.0271 15.4208 50.0473 15.6996 49.9631 15.9583C49.9495 15.998 49.9409 16.039 49.9376 16.0806C49.9299 16.1992 49.9631 16.3169 50.0324 16.4163C50.1016 16.5158 50.2032 16.5917 50.322 16.6328C50.4409 16.6739 50.5707 16.678 50.6923 16.6446C50.8138 16.6111 50.9206 16.5418 50.9969 16.447C51.0231 16.4133 51.045 16.3769 51.0621 16.3384C51.1774 16.0904 51.3858 15.8907 51.6479 15.7775C51.9099 15.6642 52.2072 15.6452 52.4832 15.7242C52.5256 15.7369 52.5693 15.745 52.6137 15.7481C52.7401 15.7554 52.8657 15.7242 52.9718 15.6593C53.0778 15.5943 53.1588 15.4991 53.2027 15.3877C53.2465 15.2763 53.2509 15.1545 53.2152 15.0406C53.1795 14.9266 53.1056 14.8265 53.0044 14.755C52.9685 14.7304 52.9297 14.7099 52.8887 14.6938Z" fill="#4D8AF0"/>
<path opacity="0.5" d="M6.1699 112.196C5.90535 112.088 5.6924 111.893 5.57159 111.647C5.45077 111.401 5.43053 111.123 5.51472 110.864C5.52834 110.824 5.53692 110.783 5.54028 110.742C5.54798 110.623 5.51475 110.505 5.4455 110.406C5.37625 110.306 5.27468 110.231 5.15582 110.189C5.03697 110.148 4.90715 110.144 4.7856 110.178C4.66404 110.211 4.55723 110.28 4.48096 110.375C4.45474 110.409 4.43284 110.445 4.41572 110.484C4.3005 110.732 4.09202 110.932 3.82998 111.045C3.56794 111.158 3.27062 111.177 2.99462 111.098C2.95231 111.085 2.90853 111.077 2.86421 111.074C2.73776 111.067 2.61219 111.098 2.5061 111.163C2.40002 111.228 2.31905 111.323 2.27521 111.435C2.23136 111.546 2.22697 111.668 2.26267 111.782C2.29837 111.896 2.37228 111.996 2.47344 112.067C2.50933 112.092 2.54819 112.112 2.58921 112.128C2.85376 112.236 3.06671 112.432 3.18752 112.678C3.30834 112.923 3.32857 113.202 3.24439 113.461C3.23077 113.5 3.22219 113.541 3.21882 113.583C3.21113 113.702 3.24436 113.819 3.31361 113.919C3.38285 114.018 3.48443 114.094 3.60328 114.135C3.72214 114.176 3.85196 114.18 3.97351 114.147C4.09506 114.114 4.20188 114.044 4.27815 113.949C4.30438 113.916 4.32628 113.879 4.3434 113.841C4.45861 113.593 4.66708 113.393 4.92913 113.28C5.19117 113.167 5.48849 113.148 5.76449 113.227C5.8068 113.239 5.85057 113.247 5.8949 113.251C6.02135 113.258 6.14692 113.227 6.25301 113.162C6.35909 113.097 6.44005 113.002 6.48389 112.89C6.52774 112.779 6.53214 112.657 6.49643 112.543C6.46073 112.429 6.38683 112.329 6.28567 112.257C6.24978 112.233 6.21092 112.212 6.1699 112.196Z" fill="#4D8AF0"/>
<path opacity="0.5" d="M239.481 78.3086C240.541 78.3086 241.4 77.5027 241.4 76.5085C241.4 75.5144 240.541 74.7085 239.481 74.7085C238.42 74.7085 237.561 75.5144 237.561 76.5085C237.561 77.5027 238.42 78.3086 239.481 78.3086Z" fill="#F55F44"/>
<path opacity="0.5" d="M38.8443 207.012C39.9047 207.012 40.7643 206.206 40.7643 205.212C40.7643 204.218 39.9047 203.412 38.8443 203.412C37.7839 203.412 36.9243 204.218 36.9243 205.212C36.9243 206.206 37.7839 207.012 38.8443 207.012Z" fill="#F55F44"/>
<path opacity="0.5" d="M272.12 147.61C273.18 147.61 274.04 146.804 274.04 145.81C274.04 144.815 273.18 144.01 272.12 144.01C271.059 144.01 270.2 144.815 270.2 145.81C270.2 146.804 271.059 147.61 272.12 147.61Z" fill="#F55F44"/>
<path opacity="0.5" d="M225.366 23.3942C225.101 23.2862 224.888 23.0908 224.767 22.8451C224.647 22.5994 224.626 22.3207 224.711 22.0619C224.724 22.0222 224.733 21.9812 224.736 21.9396C224.744 21.8211 224.711 21.7034 224.641 21.6039C224.572 21.5044 224.47 21.4285 224.352 21.3874C224.233 21.3463 224.103 21.3422 223.981 21.3757C223.86 21.4092 223.753 21.4784 223.677 21.5733C223.651 21.6069 223.629 21.6434 223.612 21.6818C223.496 21.9299 223.288 22.1295 223.026 22.2428C222.764 22.356 222.466 22.375 222.19 22.2961C222.148 22.2833 222.104 22.2753 222.06 22.2721C221.934 22.2649 221.808 22.2961 221.702 22.361C221.596 22.4259 221.515 22.5211 221.471 22.6326C221.427 22.744 221.423 22.8657 221.458 22.9797C221.494 23.0936 221.568 23.1938 221.669 23.2653C221.705 23.2899 221.744 23.3104 221.785 23.3264C222.05 23.4345 222.262 23.6299 222.383 23.8756C222.504 24.1213 222.524 24.4 222.44 24.6588C222.427 24.6984 222.418 24.7395 222.415 24.781C222.407 24.8996 222.44 25.0173 222.509 25.1168C222.579 25.2162 222.68 25.2921 222.799 25.3333C222.918 25.3744 223.048 25.3785 223.169 25.345C223.291 25.3115 223.398 25.2422 223.474 25.1474C223.5 25.1138 223.522 25.0773 223.539 25.0389C223.654 24.7908 223.863 24.5912 224.125 24.4779C224.387 24.3647 224.684 24.3457 224.96 24.4246C225.003 24.4374 225.046 24.4454 225.091 24.4486C225.217 24.4558 225.343 24.4246 225.449 24.3597C225.555 24.2948 225.636 24.1996 225.68 24.0881C225.724 23.9767 225.728 23.855 225.692 23.741C225.657 23.6271 225.583 23.5269 225.481 23.4554C225.446 23.4308 225.407 23.4103 225.366 23.3942Z" fill="#4D8AF0"/>
<path opacity="0.5" d="M257.365 211.799C257.101 211.691 256.888 211.495 256.767 211.249C256.646 211.004 256.626 210.725 256.71 210.466C256.724 210.427 256.732 210.385 256.736 210.344C256.743 210.225 256.71 210.108 256.641 210.008C256.572 209.909 256.47 209.833 256.351 209.792C256.232 209.751 256.102 209.747 255.981 209.78C255.859 209.813 255.753 209.883 255.676 209.978C255.65 210.011 255.628 210.048 255.611 210.086C255.496 210.334 255.287 210.534 255.025 210.647C254.763 210.76 254.466 210.779 254.19 210.7C254.148 210.688 254.104 210.68 254.06 210.676C253.933 210.669 253.807 210.7 253.701 210.765C253.595 210.83 253.514 210.925 253.471 211.037C253.427 211.148 253.422 211.27 253.458 211.384C253.494 211.498 253.568 211.598 253.669 211.67C253.705 211.694 253.743 211.715 253.785 211.731C254.049 211.839 254.262 212.034 254.383 212.28C254.504 212.526 254.524 212.804 254.44 213.063C254.426 213.103 254.417 213.144 254.414 213.185C254.406 213.304 254.44 213.422 254.509 213.521C254.578 213.621 254.68 213.696 254.799 213.738C254.917 213.779 255.047 213.783 255.169 213.749C255.29 213.716 255.397 213.647 255.473 213.552C255.5 213.518 255.522 213.482 255.539 213.443C255.654 213.195 255.862 212.995 256.124 212.882C256.386 212.769 256.684 212.75 256.96 212.829C257.002 212.842 257.046 212.85 257.09 212.853C257.217 212.86 257.342 212.829 257.448 212.764C257.554 212.699 257.635 212.604 257.679 212.492C257.723 212.381 257.727 212.259 257.692 212.145C257.656 212.031 257.582 211.931 257.481 211.86C257.445 211.835 257.406 211.815 257.365 211.799Z" fill="#4D8AF0"/>
<path opacity="0.5" d="M3.93113 55.1955C3.66658 55.0875 3.45363 54.892 3.33282 54.6464C3.21201 54.4007 3.19176 54.1219 3.27595 53.8632C3.28957 53.8235 3.29815 53.7825 3.30151 53.7409C3.30921 53.6224 3.27598 53.5046 3.20673 53.4052C3.13748 53.3057 3.03591 53.2298 2.91705 53.1887C2.7982 53.1476 2.66838 53.1435 2.54683 53.1769C2.42528 53.2104 2.31846 53.2797 2.24219 53.3745C2.21597 53.4082 2.19407 53.4446 2.17695 53.4831C2.06173 53.7311 1.85325 53.9308 1.59121 54.044C1.32917 54.1573 1.03185 54.1763 0.755849 54.0974C0.713535 54.0846 0.669765 54.0765 0.625441 54.0734C0.498989 54.0662 0.373419 54.0973 0.267332 54.1622C0.161246 54.2272 0.0802832 54.3224 0.036438 54.4338C-0.00740714 54.5453 -0.0118041 54.667 0.0238992 54.7809C0.0596025 54.8949 0.133508 54.995 0.234667 55.0665C0.270557 55.0911 0.309417 55.1117 0.350441 55.1277C0.614992 55.2357 0.827943 55.4312 0.948755 55.6769C1.06957 55.9225 1.0898 56.2013 1.00562 56.46C0.991998 56.4997 0.983417 56.5407 0.980053 56.5823C0.972355 56.7009 1.00559 56.8186 1.07484 56.918C1.14408 57.0175 1.24566 57.0934 1.36451 57.1345C1.48337 57.1756 1.61319 57.1797 1.73474 57.1463C1.85629 57.1128 1.96311 57.0435 2.03938 56.9487C2.06561 56.915 2.08751 56.8786 2.10463 56.8401C2.21984 56.5921 2.42832 56.3924 2.69036 56.2792C2.9524 56.1659 3.24972 56.1469 3.52572 56.2259C3.56803 56.2386 3.6118 56.2467 3.65613 56.2498C3.78258 56.2571 3.90815 56.2259 4.01424 56.161C4.12032 56.0961 4.20128 56.0008 4.24513 55.8894C4.28897 55.778 4.29337 55.6562 4.25766 55.5423C4.22196 55.4283 4.14806 55.3282 4.0469 55.2567C4.01101 55.2321 3.97215 55.2116 3.93113 55.1955Z" fill="#4D8AF0"/>
<path opacity="0.5" d="M25.4043 87.3088C26.4647 87.3088 27.3243 86.5029 27.3243 85.5088C27.3243 84.5146 26.4647 83.7087 25.4043 83.7087C24.344 83.7087 23.4844 84.5146 23.4844 85.5088C23.4844 86.5029 24.344 87.3088 25.4043 87.3088Z" fill="#47E6B1"/>
<path opacity="0.5" d="M273.08 101.709C274.14 101.709 275 100.903 275 99.9089C275 98.9148 274.14 98.1089 273.08 98.1089C272.019 98.1089 271.16 98.9148 271.16 99.9089C271.16 100.903 272.019 101.709 273.08 101.709Z" fill="#47E6B1"/>
<g opacity="0.5">
<path opacity="0.5" d="M187.642 0.306396H186.682V5.40652H187.642V0.306396Z" fill="#47E6B1"/>
<path opacity="0.5" d="M189.881 3.30676V2.40674L184.441 2.40674V3.30676L189.881 3.30676Z" fill="#47E6B1"/>
</g>
<g opacity="0.5">
<path opacity="0.5" d="M191.162 200.111H190.202V205.211H191.162V200.111Z" fill="#47E6B1"/>
<path opacity="0.5" d="M193.401 203.111V202.211H187.961V203.111H193.401Z" fill="#47E6B1"/>
</g>
<g opacity="0.5">
<path opacity="0.5" d="M9.40334 210.912H8.44336V216.012H9.40334V210.912Z" fill="#47E6B1"/>
<path opacity="0.5" d="M11.6436 213.911V213.011H6.20365V213.911H11.6436Z" fill="#47E6B1"/>
</g>
<g opacity="0.5">
<path opacity="0.5" d="M227.96 119.11H227V124.21H227.96V119.11Z" fill="#47E6B1"/>
<path opacity="0.5" d="M230.2 122.11V121.21H224.76V122.11H230.2Z" fill="#47E6B1"/>
</g>
<path opacity="0.5" d="M254.586 37.2127L256.648 38.9846L259.569 34.9573L260.6 35.7628L256.648 40.5956L253.727 37.5349L254.586 37.2127Z" fill="#47E6B1"/>
<path d="M195.727 72.0898L188.615 72.3484L188.969 80.9213L196.081 80.6628L195.727 72.0898Z" fill="#6C63FF"/>
<path d="M163.645 102.114C163.645 102.114 153.796 97.7023 153.954 101.513C154.111 105.323 163.881 107.829 163.881 107.829L163.645 102.114Z" fill="#FFB9B9"/>
<path d="M169.049 134.353C169.049 134.353 164.402 145.016 162.686 152.71C160.969 160.405 158.354 170.993 161.717 178.503C165.081 186.013 174.642 208.083 174.741 210.465C174.839 212.846 173.922 215.264 175.954 215.191C177.986 215.117 189.044 211.853 189.493 210.405C189.942 208.958 185.72 205.296 185.72 205.296L175.296 174.67L186.172 154.718L194.017 184.483L195.554 221.633C195.554 221.633 203.095 219.451 204.19 221.319C204.19 221.319 207.568 216.903 207.998 214.98C208.427 213.056 206.402 176.401 206.402 176.401C206.402 176.401 213.324 134.652 207.736 134.855C202.148 135.058 180.26 122.498 169.049 134.353Z" fill="#6C63FF"/>
<path d="M175.876 213.285C175.876 213.285 170.721 223.966 170.233 224.461C169.744 224.956 166.385 229.848 168.925 229.755C171.465 229.663 177.463 227.06 181.877 223.084C186.292 219.107 192.112 212.218 191.584 211.76C191.057 211.302 187.441 210.003 187.441 210.003L175.876 213.285Z" fill="#575A89"/>
<path d="M196.471 219.215C196.471 219.215 196.16 223.996 195.223 225.938C194.285 227.88 194.404 230.737 196.944 230.645C199.484 230.553 206.048 229.36 206.048 229.36C206.048 229.36 206.438 226.484 205.91 226.026C205.383 225.568 203.134 220.403 204.091 218.937C205.048 217.472 196.471 219.215 196.471 219.215Z" fill="#575A89"/>
<path d="M200.229 64.0557C200.229 64.0557 205.644 71.9676 207.755 73.7989C209.866 75.6301 203.927 79.6619 203.927 79.6619L193.298 81.0023C193.298 81.0023 193.432 71.9346 192.885 71.0005C192.337 70.0665 200.229 64.0557 200.229 64.0557Z" fill="#FFB9B9"/>
<path d="M190.99 74.4084C190.99 74.4084 193.18 78.1447 195.212 78.0709C197.244 77.997 207.754 73.7989 208.203 72.3516C208.652 70.9044 211.685 82.7189 211.685 82.7189L185.966 125.152L179.693 121.087L182.733 96.1732L185.229 82.7267L190.99 74.4084Z" fill="#6C63FF"/>
<path d="M209.152 112.385C208.126 114.397 207.485 116.495 207.574 118.643C207.578 118.738 207.582 118.833 207.591 118.928C207.834 123.336 209.566 128.435 210.188 132.142C210.639 134.802 210.51 136.743 208.85 137.199C204.826 138.299 209.437 139.086 193.866 143.945C178.295 148.804 175.578 144.61 175.539 143.657C175.499 142.704 177.744 135.468 177.216 135.01C176.688 134.552 169.833 141.003 167.761 140.124C165.69 139.245 167.525 134.409 167.525 134.409C167.525 134.409 172.191 124.222 172.093 121.841C171.994 119.459 179.161 108.228 179.161 108.228L184.036 78.4774C184.036 78.4774 185.91 74.5933 188.43 74.0247C190.951 73.456 193.042 74.811 193.042 74.811L188.824 83.5502L184.375 98.9756L185.119 104.672C185.119 104.672 190.294 94.4675 193.692 90.5281C197.09 86.5886 204.336 77.2623 204.336 77.2623C204.336 77.2623 206.028 71.911 204.751 70.3118C203.474 68.7079 210.078 68.4678 212.894 75.0433C214.386 78.5283 216.809 83.7252 218.327 88.564C219.679 92.8506 220.318 96.858 218.978 99.1486C216.93 102.648 211.778 107.247 209.152 112.385Z" fill="#575A89"/>
<path opacity="0.1" d="M218.978 99.1484C216.93 102.648 211.778 107.247 209.152 112.384C208.466 110.067 207.629 107.67 207.629 107.67C207.629 107.67 204.419 91.5689 213.913 87.4078C215.487 87.2652 217.06 87.6774 218.327 88.5639C219.679 92.8505 220.318 96.8579 218.978 99.1484Z" fill="black"/>
<path d="M181.287 98.1333L173.238 100.334L162.062 100.74L160.912 109.845L179.279 111.085C179.279 111.085 183.867 98.9935 181.287 98.1333Z" fill="#575A89"/>
<path d="M194.413 128.746C194.413 128.746 183.644 130.421 186.102 133.459C188.56 136.497 198.099 133.303 198.099 133.303L194.413 128.746Z" fill="#FFB9B9"/>
<path opacity="0.1" d="M207.592 118.928C207.835 123.336 209.567 128.434 210.188 132.142C206.758 135.186 203.496 137.871 202.267 137.915C199.727 138.008 195.643 137.679 194.139 138.211C192.634 138.742 191.752 129.712 191.752 129.712C191.752 129.712 192.65 126.817 196.655 125.241C199.358 124.174 204.54 121.281 207.592 118.928Z" fill="black"/>
<path d="M213.795 84.5502C213.795 84.5502 222.392 83.2837 221.927 96.6563C221.463 110.029 222.834 118.565 219.376 121.076C215.919 123.586 204.688 134.965 202.148 135.058C199.607 135.15 195.524 134.821 194.019 135.353C192.515 135.885 191.633 126.854 191.633 126.854C191.633 126.854 192.531 123.96 196.536 122.383C200.541 120.806 209.976 115.216 209.897 113.311C209.818 111.406 207.511 104.812 207.511 104.812C207.511 104.812 204.301 88.7113 213.795 84.5502Z" fill="#575A89"/>
<path d="M192.648 75.7711C198.825 75.7711 203.832 71.0764 203.832 65.2852C203.832 59.494 198.825 54.7993 192.648 54.7993C186.471 54.7993 181.463 59.494 181.463 65.2852C181.463 71.0764 186.471 75.7711 192.648 75.7711Z" fill="#FFB9B9"/>
<path d="M185.117 50.2566C184.847 50.4745 184.524 50.6265 184.176 50.6991C184.002 50.7282 183.822 50.6915 183.677 50.5969C183.531 50.5023 183.431 50.3574 183.399 50.194C183.143 50.6916 182.854 51.2218 182.332 51.4771C181.809 51.7324 181.001 51.5183 180.926 50.9705C180.85 51.3865 180.654 51.7749 180.359 52.0937C180.034 52.3835 179.447 52.4566 179.164 52.1312C179.392 53.3034 179.251 54.509 179.323 55.6988C179.395 56.8886 179.733 58.15 180.692 58.9324C182.09 60.0734 184.193 59.7918 186.033 59.5757C186.311 59.5209 186.599 59.5357 186.869 59.6186C187.558 59.8937 187.527 60.7925 187.536 61.4943C187.592 62.7257 188.112 63.8986 189.003 64.8048C189.895 65.7109 191.099 66.2916 192.404 66.4437C193.134 66.5494 193.879 66.3789 194.475 65.9698C194.997 65.5548 195.264 64.8784 195.863 64.5666C196.836 64.0595 198.017 64.7991 198.728 65.6021C199.44 66.4051 200.142 67.3929 201.244 67.5399C202.702 67.7343 203.813 66.3411 204.358 65.0582C205.11 63.2602 205.47 61.3392 205.417 59.4086C205.364 57.4779 204.9 55.5767 204.051 53.817C201.006 47.5946 190.606 46.6104 185.117 50.2566Z" fill="#2F2E41"/>
<defs>
<linearGradient id="paint0_linear" x1="110.37" y1="111.128" x2="161.722" y2="111.128" gradientUnits="userSpaceOnUse">
<stop stop-color="#808080" stop-opacity="0.25"/>
<stop offset="0.53514" stop-color="#808080" stop-opacity="0.12"/>
<stop offset="1" stop-color="#808080" stop-opacity="0.1"/>
</linearGradient>
</defs>
</svg>
