<svg width="444" height="146" viewBox="0 0 444 146" fill="none" xmlns="http://www.w3.org/2000/svg">
<path d="M242.487 55.9204V49.2034H201.256V49.6234V55.9204V110.076V116.793H209.503H242.487V110.076H209.503V55.9204H242.487Z" fill="white"/>
<path d="M262.587 49.2036V116.793H303.817V49.2036H262.587ZM295.571 110.076H270.833V55.9206H295.571V110.076Z" fill="#6C63FF"/>
<path d="M148.172 110.076V49.6235H139.926V110.076V116.793H148.172H181.156V110.076H148.172Z" fill="#6C63FF"/>
<path d="M121.373 55.9204V49.2034H80.1421V49.6234V55.9204V79.43V86.1471V110.076V116.793H88.3883H121.373V110.076H88.3883V86.1471H121.373V79.43H88.3883V55.9204H121.373Z" fill="white"/>
<path d="M444 55.9204V49.2034H402.77V49.6234V55.9204V79.43V86.1471V110.076V116.793H411.016H444V110.076H411.016V86.1471H444V79.43H411.016V55.9204H444Z" fill="#6C63FF"/>
<path d="M52.3111 49.6236V105.138L30.5688 87.4281L30.5193 87.4689L30.4732 87.4313L8.24621 105.537V49.4138H0V116.584H8.24621V115.036L30.5233 96.8896L52.3111 114.638V116.793H60.5573V49.6236H52.3111Z" fill="white"/>
<path d="M375.456 49.6236V51.1711L353.179 69.3172L331.39 51.5696V49.4138H323.144V116.584H331.39V61.0687L353.132 78.7792L353.183 78.7384L353.228 78.7756L375.456 60.6702V116.793H383.701V49.6236H375.456Z" fill="white"/>
<path d="M160.393 8.24575C163.189 8.24575 165.455 6.39988 165.455 4.12288C165.455 1.84587 163.189 0 160.393 0C157.598 0 155.332 1.84587 155.332 4.12288C155.332 6.39988 157.598 8.24575 160.393 8.24575Z" fill="#6C63FF"/>
<path d="M35.5448 54.0553C38.3402 54.0553 40.6063 52.2094 40.6063 49.9324C40.6063 47.6554 38.3402 45.8096 35.5448 45.8096C32.7495 45.8096 30.4834 47.6554 30.4834 49.9324C30.4834 52.2094 32.7495 54.0553 35.5448 54.0553Z" fill="#6C63FF"/>
<path d="M135.649 145.675C138.444 145.675 140.71 143.829 140.71 141.552C140.71 139.275 138.444 137.429 135.649 137.429C132.853 137.429 130.587 139.275 130.587 141.552C130.587 143.829 132.853 145.675 135.649 145.675Z" fill="#6C63FF"/>
<path d="M262.747 20.6144C265.542 20.6144 267.808 18.7685 267.808 16.4915C267.808 14.2145 265.542 12.3687 262.747 12.3687C259.952 12.3687 257.686 14.2145 257.686 16.4915C257.686 18.7685 259.952 20.6144 262.747 20.6144Z" fill="#6C63FF"/>
<path d="M411.778 142.01C414.574 142.01 416.84 140.164 416.84 137.887C416.84 135.61 414.574 133.764 411.778 133.764C408.983 133.764 406.717 135.61 406.717 137.887C406.717 140.164 408.983 142.01 411.778 142.01Z" fill="#6C63FF"/>
<path d="M416.84 33.8991C419.635 33.8991 421.901 32.0532 421.901 29.7762C421.901 27.4992 419.635 25.6533 416.84 25.6533C414.044 25.6533 411.778 27.4992 411.778 29.7762C411.778 32.0532 414.044 33.8991 416.84 33.8991Z" fill="#6C63FF"/>
<path d="M352.728 108.111C355.523 108.111 357.789 106.265 357.789 103.988C357.789 101.711 355.523 99.8652 352.728 99.8652C349.933 99.8652 347.667 101.711 347.667 103.988C347.667 106.265 349.933 108.111 352.728 108.111Z" fill="#6C63FF"/>
</svg>
